<?xml version="1.0" standalone="no"?>
<svg xmlns:xlink="http://www.w3.org/1999/xlink" id="wave" style="transform:rotate(180deg); transition: 0.3s" viewBox="0 0 1440 490" version="1.1" xmlns="http://www.w3.org/2000/svg"><defs><linearGradient id="sw-gradient-0" x1="0" x2="0" y1="1" y2="0"><stop stop-color="rgba(44, 101, 200, 1)" offset="0%"/><stop stop-color="rgba(112, 44, 200, 1)" offset="100%"/></linearGradient></defs><path style="transform:translate(0, 0px); opacity:1" fill="url(#sw-gradient-0)" d="M0,196L60,179.7C120,163,240,131,360,171.5C480,212,600,327,720,326.7C840,327,960,212,1080,196C1200,180,1320,261,1440,310.3C1560,359,1680,376,1800,326.7C1920,278,2040,163,2160,171.5C2280,180,2400,310,2520,326.7C2640,343,2760,245,2880,245C3000,245,3120,343,3240,367.5C3360,392,3480,343,3600,277.7C3720,212,3840,131,3960,130.7C4080,131,4200,212,4320,204.2C4440,196,4560,98,4680,89.8C4800,82,4920,163,5040,236.8C5160,310,5280,376,5400,351.2C5520,327,5640,212,5760,138.8C5880,65,6000,33,6120,16.3C6240,0,6360,0,6480,16.3C6600,33,6720,65,6840,114.3C6960,163,7080,229,7200,261.3C7320,294,7440,294,7560,269.5C7680,245,7800,196,7920,220.5C8040,245,8160,343,8280,367.5C8400,392,8520,343,8580,318.5L8640,294L8640,490L8580,490C8520,490,8400,490,8280,490C8160,490,8040,490,7920,490C7800,490,7680,490,7560,490C7440,490,7320,490,7200,490C7080,490,6960,490,6840,490C6720,490,6600,490,6480,490C6360,490,6240,490,6120,490C6000,490,5880,490,5760,490C5640,490,5520,490,5400,490C5280,490,5160,490,5040,490C4920,490,4800,490,4680,490C4560,490,4440,490,4320,490C4200,490,4080,490,3960,490C3840,490,3720,490,3600,490C3480,490,3360,490,3240,490C3120,490,3000,490,2880,490C2760,490,2640,490,2520,490C2400,490,2280,490,2160,490C2040,490,1920,490,1800,490C1680,490,1560,490,1440,490C1320,490,1200,490,1080,490C960,490,840,490,720,490C600,490,480,490,360,490C240,490,120,490,60,490L0,490Z"/></svg>